<?xml version="1.0" standalone="no"?>
<!DOCTYPE svg PUBLIC "-//W3C//DTD SVG 20010904//EN"
 "http://www.w3.org/TR/2001/REC-SVG-20010904/DTD/svg10.dtd">
<svg version="1.0" xmlns="http://www.w3.org/2000/svg"
 width="700.000000pt" height="700.000000pt" viewBox="0 0 700.000000 700.000000"
 preserveAspectRatio="xMidYMid meet">
<metadata>
Created by potrace 1.14, written by Peter Selinger 2001-2017
</metadata>
<g transform="translate(0.000000,700.000000) scale(0.100000,-0.100000)"
fill="#000000" stroke="none">
<path d="M1405 6342 c-387 -33 -698 -327 -742 -702 -8 -68 -8 -1157 1 -1220
39 -308 247 -559 543 -659 57 -19 88 -26 158 -37 44 -7 1185 -6 1220 1 164 32
273 78 380 160 169 129 275 311 310 530 8 51 8 1163 0 1230 -3 28 -15 80 -26
117 -91 309 -339 524 -659 574 -42 6 -1117 12 -1185 6z m1195 -457 c130 -53
208 -145 234 -275 17 -81 13 -1120 -3 -1180 -40 -144 -160 -250 -304 -269 -29
-3 -293 -6 -587 -5 -479 0 -541 2 -590 18 -106 33 -200 125 -237 231 -16 45
-17 102 -17 630 0 577 0 580 23 637 26 66 95 148 155 183 84 49 104 51 713 50
528 -1 571 -3 613 -20z"/>
<path d="M4507 6344 c-1 -1 -34 -4 -73 -7 -262 -23 -506 -193 -633 -443 -31
-61 -69 -185 -76 -251 -7 -58 -7 -1182 0 -1228 53 -354 322 -629 671 -685 73
-12 1175 -16 1249 -5 205 31 404 144 523 296 93 120 149 254 170 409 9 68 8
1170 -2 1225 -22 129 -61 230 -131 335 -49 74 -172 195 -232 229 -110 62 -196
94 -313 117 -28 5 -1146 13 -1153 8z m1153 -458 c103 -38 182 -116 223 -218
20 -52 21 -68 22 -620 1 -604 0 -631 -48 -707 -54 -89 -144 -155 -237 -176
-56 -13 -1095 -12 -1166 0 -123 22 -228 110 -274 232 -23 57 -23 63 -24 603
-1 300 2 569 7 598 21 147 146 276 290 301 23 3 294 6 602 5 497 -1 565 -3
605 -18z"/>
<path d="M1507 3284 c-1 -1 -45 -4 -97 -7 -122 -7 -193 -26 -305 -81 -157 -78
-277 -195 -357 -349 -43 -81 -65 -148 -85 -257 -9 -51 -9 -1153 0 -1230 23
-195 143 -412 287 -521 25 -19 47 -37 50 -40 3 -3 35 -22 72 -42 95 -52 191
-83 293 -94 80 -9 1122 -9 1205 0 189 20 377 116 500 254 53 59 140 192 140
214 0 8 4 19 9 25 14 15 49 143 56 209 8 75 8 1166 0 1220 -4 22 -11 58 -17
80 -5 22 -12 48 -14 59 -8 44 -97 206 -143 262 -136 163 -341 272 -548 290
-55 5 -1040 12 -1046 8z m1063 -453 c132 -38 224 -129 260 -261 15 -51 21
-1091 8 -1168 -22 -128 -109 -234 -230 -282 l-63 -25 -580 1 -580 0 -60 24
c-83 32 -173 122 -205 205 l-24 60 -1 560 c-1 308 2 579 7 603 28 153 166 278
323 294 17 2 271 3 565 2 398 -1 546 -4 580 -13z"/>
<path d="M4490 3279 c-164 -11 -290 -52 -417 -136 -74 -49 -168 -143 -220
-221 -41 -62 -98 -186 -107 -235 -2 -15 -7 -30 -9 -34 -14 -24 -18 -182 -18
-692 0 -311 3 -584 6 -606 49 -365 349 -657 710 -692 92 -9 1122 -9 1201 0
364 42 658 335 701 697 4 30 7 311 6 625 0 491 -2 581 -16 651 -42 201 -134
346 -315 495 -7 6 -50 30 -95 54 -91 48 -200 82 -292 91 -85 8 -1021 10 -1135
3z m1165 -454 c127 -45 220 -150 243 -276 10 -50 8 -1140 -2 -1179 -32 -129
-154 -244 -286 -268 -25 -4 -295 -8 -600 -7 -498 1 -560 2 -605 18 -107 37
-210 147 -236 252 -14 57 -20 1098 -7 1174 26 147 141 267 284 296 33 6 257
10 605 9 502 -1 559 -3 604 -19z"/>
</g>
</svg>
